<mxfile host="app.diagrams.net" modified="2022-11-03T06:39:31.586Z" agent="5.0 (Windows NT 10.0; Win64; x64) AppleWebKit/537.36 (KHTML, like Gecko) Chrome/106.0.0.0 Safari/537.36" etag="RzaloIfG9ju1RwiZfi0E" version="20.5.1" type="github">
  <diagram id="0S9IuA0MUspX1pKyNK9L" name="Страница 1">
    <mxGraphModel dx="1247" dy="815" grid="1" gridSize="10" guides="1" tooltips="1" connect="1" arrows="1" fold="1" page="1" pageScale="1" pageWidth="827" pageHeight="1169" math="0" shadow="0">
      <root>
        <mxCell id="0" />
        <mxCell id="1" parent="0" />
        <mxCell id="AjJ1fiy0JQN6Zd3U1w5--1" value=":TaskTypeZoom.ascx" style="shape=umlLifeline;perimeter=lifelinePerimeter;whiteSpace=wrap;html=1;container=1;collapsible=0;recursiveResize=0;outlineConnect=0;" vertex="1" parent="1">
          <mxGeometry x="80" y="40" width="160" height="300" as="geometry" />
        </mxCell>
        <mxCell id="AjJ1fiy0JQN6Zd3U1w5--2" value="dsThread:SqlDataSource" style="shape=umlLifeline;perimeter=lifelinePerimeter;whiteSpace=wrap;html=1;container=1;collapsible=0;recursiveResize=0;outlineConnect=0;" vertex="1" parent="1">
          <mxGeometry x="280" y="40" width="160" height="300" as="geometry" />
        </mxCell>
        <mxCell id="AjJ1fiy0JQN6Zd3U1w5--5" value="" style="html=1;points=[];perimeter=orthogonalPerimeter;" vertex="1" parent="AjJ1fiy0JQN6Zd3U1w5--2">
          <mxGeometry x="75" y="100" width="10" height="40" as="geometry" />
        </mxCell>
        <mxCell id="AjJ1fiy0JQN6Zd3U1w5--3" value="DB" style="shape=umlLifeline;perimeter=lifelinePerimeter;whiteSpace=wrap;html=1;container=1;collapsible=0;recursiveResize=0;outlineConnect=0;" vertex="1" parent="1">
          <mxGeometry x="1000" y="40" width="160" height="300" as="geometry" />
        </mxCell>
        <mxCell id="AjJ1fiy0JQN6Zd3U1w5--4" value="" style="html=1;points=[];perimeter=orthogonalPerimeter;" vertex="1" parent="AjJ1fiy0JQN6Zd3U1w5--3">
          <mxGeometry x="75" y="120" width="10" height="10" as="geometry" />
        </mxCell>
        <mxCell id="AjJ1fiy0JQN6Zd3U1w5--7" value="&amp;lt;&amp;lt; load &amp;gt;&amp;gt;" style="html=1;verticalAlign=bottom;startArrow=oval;startFill=1;endArrow=block;startSize=8;rounded=0;" edge="1" parent="1" target="AjJ1fiy0JQN6Zd3U1w5--1">
          <mxGeometry width="60" relative="1" as="geometry">
            <mxPoint x="20" y="120" as="sourcePoint" />
            <mxPoint x="80" y="120" as="targetPoint" />
          </mxGeometry>
        </mxCell>
        <mxCell id="AjJ1fiy0JQN6Zd3U1w5--8" value="&amp;lt;&amp;lt; bind &amp;gt;&amp;gt;" style="html=1;verticalAlign=bottom;endArrow=block;rounded=0;entryX=0.037;entryY=0.025;entryDx=0;entryDy=0;entryPerimeter=0;" edge="1" parent="1" source="AjJ1fiy0JQN6Zd3U1w5--1" target="AjJ1fiy0JQN6Zd3U1w5--5">
          <mxGeometry x="-0.178" y="1" width="80" relative="1" as="geometry">
            <mxPoint x="140" y="380" as="sourcePoint" />
            <mxPoint x="220" y="380" as="targetPoint" />
            <mxPoint as="offset" />
          </mxGeometry>
        </mxCell>
        <mxCell id="AjJ1fiy0JQN6Zd3U1w5--9" value="[grls].[dbo].[getStatementIncWorkFlowFull] @InNumber" style="html=1;verticalAlign=bottom;endArrow=block;rounded=0;entryX=-0.145;entryY=0.036;entryDx=0;entryDy=0;entryPerimeter=0;" edge="1" parent="1" source="AjJ1fiy0JQN6Zd3U1w5--5" target="AjJ1fiy0JQN6Zd3U1w5--4">
          <mxGeometry x="0.5101" width="80" relative="1" as="geometry">
            <mxPoint x="310" y="530" as="sourcePoint" />
            <mxPoint x="390" y="530" as="targetPoint" />
            <mxPoint as="offset" />
          </mxGeometry>
        </mxCell>
        <mxCell id="AjJ1fiy0JQN6Zd3U1w5--10" value="rpThread:Repeater" style="shape=umlLifeline;perimeter=lifelinePerimeter;whiteSpace=wrap;html=1;container=1;collapsible=0;recursiveResize=0;outlineConnect=0;" vertex="1" parent="1">
          <mxGeometry x="460" y="40" width="160" height="300" as="geometry" />
        </mxCell>
        <mxCell id="AjJ1fiy0JQN6Zd3U1w5--11" value="" style="html=1;points=[];perimeter=orthogonalPerimeter;" vertex="1" parent="AjJ1fiy0JQN6Zd3U1w5--10">
          <mxGeometry x="75" y="160" width="10" height="80" as="geometry" />
        </mxCell>
        <mxCell id="AjJ1fiy0JQN6Zd3U1w5--12" value="&amp;lt;&amp;lt; bind &amp;gt;&amp;gt;" style="html=1;verticalAlign=bottom;endArrow=block;rounded=0;entryX=0.037;entryY=0.027;entryDx=0;entryDy=0;entryPerimeter=0;" edge="1" parent="1" source="AjJ1fiy0JQN6Zd3U1w5--1" target="AjJ1fiy0JQN6Zd3U1w5--11">
          <mxGeometry x="-0.5717" y="1" width="80" relative="1" as="geometry">
            <mxPoint x="159.13" y="200" as="sourcePoint" />
            <mxPoint x="354.9999999999999" y="200" as="targetPoint" />
            <mxPoint x="1" as="offset" />
          </mxGeometry>
        </mxCell>
        <mxCell id="AjJ1fiy0JQN6Zd3U1w5--13" value=":TaskTypeZoom.ascx.cs" style="shape=umlLifeline;perimeter=lifelinePerimeter;whiteSpace=wrap;html=1;container=1;collapsible=0;recursiveResize=0;outlineConnect=0;" vertex="1" parent="1">
          <mxGeometry x="630" y="40" width="160" height="300" as="geometry" />
        </mxCell>
        <mxCell id="AjJ1fiy0JQN6Zd3U1w5--14" value="" style="html=1;points=[];perimeter=orthogonalPerimeter;" vertex="1" parent="AjJ1fiy0JQN6Zd3U1w5--13">
          <mxGeometry x="75" y="180" width="10" height="40" as="geometry" />
        </mxCell>
        <mxCell id="AjJ1fiy0JQN6Zd3U1w5--15" value="&amp;lt;&amp;lt;&amp;nbsp;OnItemDataBound &amp;gt;&amp;gt;&lt;br&gt;rpThread_ItemDataBound()" style="html=1;verticalAlign=bottom;endArrow=block;rounded=0;entryX=-0.145;entryY=0.05;entryDx=0;entryDy=0;entryPerimeter=0;" edge="1" parent="1" source="AjJ1fiy0JQN6Zd3U1w5--11" target="AjJ1fiy0JQN6Zd3U1w5--14">
          <mxGeometry width="80" relative="1" as="geometry">
            <mxPoint x="650" y="420" as="sourcePoint" />
            <mxPoint x="730" y="420" as="targetPoint" />
          </mxGeometry>
        </mxCell>
      </root>
    </mxGraphModel>
  </diagram>
</mxfile>
